<?xml version="1.0" standalone="no"?>
<!DOCTYPE svg PUBLIC "-//W3C//DTD SVG 20010904//EN"
 "http://www.w3.org/TR/2001/REC-SVG-20010904/DTD/svg10.dtd">
<svg version="1.0" xmlns="http://www.w3.org/2000/svg"
 width="800.000000pt" height="800.000000pt" viewBox="0 0 800.000000 800.000000"
 preserveAspectRatio="xMidYMid meet">

<g transform="translate(0.000000,800.000000) scale(0.100000,-0.100000)"
fill="#000000" stroke="none">
<path d="M3817 6215 c-67 -19 -193 -89 -255 -142 -92 -79 -180 -211 -213 -321
-15 -51 -21 -55 -119 -71 -275 -47 -487 -127 -569 -217 -53 -57 -62 -103 -31
-161 49 -92 199 -166 460 -227 89 -21 359 -66 397 -66 6 0 28 -49 48 -110 40
-120 52 -135 137 -164 85 -28 180 -39 358 -38 241 0 387 27 439 80 17 17 40
66 61 129 l34 102 50 6 c535 69 836 194 836 348 0 131 -238 253 -620 318 -85
14 -110 24 -110 44 0 26 -53 140 -97 207 -74 113 -184 202 -333 268 -51 23
-67 25 -240 27 -129 1 -199 -3 -233 -12z m411 -61 c117 -39 169 -71 258 -159
80 -79 130 -153 159 -234 13 -38 13 -41 -3 -32 -25 13 -44 37 -87 111 -155
263 -482 370 -762 250 -142 -60 -253 -168 -315 -307 -27 -60 -37 -73 -56 -73
-29 0 -26 15 25 117 41 83 122 178 206 239 63 47 187 99 269 114 85 15 219 4
306 -26z m-31 -126 c56 -21 160 -85 152 -92 -2 -2 -44 7 -94 20 -215 55 -416
17 -612 -117 l-75 -51 18 33 c57 99 207 203 329 228 79 16 210 6 282 -21z m48
-352 c478 -12 923 -104 1079 -223 66 -51 70 -69 9 -39 -204 102 -621 155
-1248 161 -644 6 -1145 -54 -1356 -160 -58 -30 -64 -19 -13 23 125 104 428
184 862 228 67 7 417 20 442 17 8 -1 110 -4 225 -7z m-235 -219 l0 -64 -127
-6 c-71 -3 -156 -11 -190 -18 -60 -11 -63 -10 -122 21 -63 34 -140 94 -131
103 6 7 308 23 458 25 l112 2 0 -63z m395 52 c116 -6 212 -13 215 -16 9 -9
-75 -75 -134 -105 -56 -29 -61 -29 -120 -18 -33 6 -118 14 -188 17 l-128 6 0
64 0 63 73 0 c39 0 167 -5 282 -11z m-968 -69 c31 -28 73 -60 94 -71 22 -11
39 -21 39 -23 0 -3 -24 -16 -54 -29 -53 -25 -86 -63 -86 -102 0 -8 -3 -15 -7
-15 -149 4 -574 82 -676 125 l-29 12 23 17 c52 36 231 82 434 110 61 9 121 17
135 19 62 10 73 7 127 -43z m1453 24 c208 -30 386 -76 431 -113 l23 -18 -50
-16 c-128 -43 -393 -92 -595 -112 l-67 -6 -6 34 c-8 41 -26 59 -89 87 -26 12
-47 23 -47 25 0 2 16 12 37 21 20 10 61 42 92 71 l56 53 55 -5 c30 -4 102 -13
160 -21z m-581 -149 c127 -19 222 -48 247 -77 19 -21 19 -21 -6 -14 -64 17
-215 46 -239 45 -14 0 10 -11 54 -23 105 -30 178 -60 183 -76 3 -9 -1 -11 -14
-6 -33 13 -188 46 -214 45 l-25 -1 25 -8 c14 -4 50 -15 80 -24 73 -22 130 -47
130 -58 0 -10 9 -11 -96 12 -111 24 -149 24 -69 -1 76 -23 156 -60 150 -69 -2
-4 -43 2 -91 12 -48 10 -92 17 -98 14 -6 -2 -3 -5 7 -5 32 -2 167 -62 167 -75
0 -23 -12 -25 -49 -7 -173 88 -613 92 -821 8 -33 -14 -60 -23 -60 -22 0 2 -3
10 -6 18 -4 11 15 23 70 46 41 17 83 31 93 32 10 0 13 3 7 5 -6 3 -50 -4 -98
-14 -48 -10 -89 -16 -91 -12 -5 9 75 45 155 71 75 23 35 23 -74 -1 -105 -23
-96 -22 -96 -11 0 9 90 46 185 75 l50 16 -52 -5 c-28 -3 -84 -14 -125 -24
-108 -28 -107 -12 2 30 30 11 84 28 120 37 101 26 32 27 -81 1 -163 -37 -147
-35 -125 -10 23 25 113 55 216 70 41 6 86 13 100 15 74 10 392 5 489 -9z
m-1497 -49 c122 -35 266 -63 418 -81 74 -9 154 -18 177 -21 39 -5 43 -8 54
-45 7 -21 10 -41 8 -43 -7 -7 -242 32 -367 60 -164 37 -305 90 -367 138 -27
21 -19 20 77 -8z m2513 8 c-60 -47 -188 -96 -353 -135 -112 -27 -373 -71 -380
-64 -2 2 2 21 9 43 12 40 13 41 68 47 270 30 449 61 591 103 81 25 90 25 65 6z
m-1015 -269 c41 -9 96 -26 121 -36 40 -18 45 -23 41 -45 -3 -19 -9 -23 -21
-18 -115 51 -244 74 -421 74 -147 0 -254 -14 -345 -46 -38 -13 -74 -25 -80
-26 -5 -2 -11 7 -13 19 -5 35 62 62 223 89 107 18 393 11 495 -11z m-180 -95
c150 -13 297 -53 268 -72 -70 -45 -308 -75 -479 -59 -108 10 -243 42 -254 61
-13 21 119 58 250 69 50 5 92 9 95 10 3 0 57 -4 120 -9z"/>
<path d="M3812 5649 c-203 -9 -385 -30 -572 -65 -124 -23 -190 -39 -338 -81
-91 -26 -50 -24 56 2 127 31 344 69 532 92 184 22 851 26 1025 5 267 -31 482
-68 648 -112 94 -25 99 -17 6 10 -188 56 -397 99 -609 124 -106 13 -534 39
-565 34 -5 0 -88 -5 -183 -9z"/>
<path d="M3700 5477 c-40 -20 -37 -45 7 -63 46 -20 120 -9 137 19 26 43 -81
76 -144 44z m122 -15 c4 -4 -22 -7 -57 -7 -36 0 -65 1 -65 3 0 1 10 7 23 12
22 9 86 4 99 -8z"/>
<path d="M4229 5471 c-20 -16 -22 -23 -13 -38 25 -40 155 -38 171 4 18 47
-110 74 -158 34z m123 -9 c4 -4 -22 -7 -57 -7 -61 0 -73 7 -30 18 24 6 76 0
87 -11z"/>
<path d="M3123 5393 c-66 -33 -48 -83 38 -103 87 -21 190 19 175 67 -15 48
-146 69 -213 36z m157 -18 c23 -14 20 -14 -40 -9 -37 3 -77 1 -92 -5 -16 -6
-28 -6 -28 -2 0 28 119 39 160 16z"/>
<path d="M4763 5393 c-66 -33 -48 -83 38 -103 87 -21 190 19 175 67 -15 48
-146 69 -213 36z m158 -19 c38 -19 32 -29 -7 -13 -17 6 -56 9 -94 5 -61 -5
-63 -4 -35 9 40 19 99 19 136 -1z"/>
<path d="M3940 5280 c-10 -7 18 -10 88 -10 66 0 101 4 97 10 -8 13 -165 13
-185 0z"/>
<path d="M3960 5231 c-53 -10 -13 -21 73 -21 84 0 119 14 60 23 -44 8 -83 7
-133 -2z"/>
<path d="M3940 5170 c-32 -9 93 -17 165 -10 l50 5 -40 7 c-50 10 -142 9 -175
-2z"/>
<path d="M3920 5110 c-15 -5 28 -8 110 -8 82 0 125 3 110 8 -14 4 -63 8 -110
8 -47 0 -96 -4 -110 -8z"/>
<path d="M3485 6190 c-277 -63 -629 -239 -875 -437 -100 -81 -321 -309 -395
-408 -83 -111 -154 -231 -255 -430 -103 -204 -170 -402 -142 -419 16 -10 62
12 62 28 0 29 78 251 126 360 189 431 552 821 974 1049 147 79 339 154 505
196 22 6 62 26 89 46 48 34 49 35 20 34 -16 0 -65 -9 -109 -19z"/>
<path d="M4486 6175 c27 -20 67 -40 89 -45 107 -27 301 -97 400 -144 550 -262
975 -741 1160 -1311 27 -82 49 -151 50 -152 1 -2 16 -6 33 -9 l31 -6 -10 38
c-111 426 -368 848 -683 1123 -242 211 -491 358 -781 461 -114 40 -268 80
-308 80 l-31 0 50 -35z"/>
<path d="M2731 4856 c-17 -41 -31 -86 -31 -100 0 -22 5 -26 29 -26 20 0 30 -6
34 -20 3 -12 14 -20 26 -20 14 0 21 6 21 20 0 11 5 20 10 20 6 0 10 11 10 25
0 14 -4 25 -10 25 -6 0 -10 32 -10 75 0 73 -1 75 -24 75 -21 0 -29 -11 -55
-74z m26 -68 c-3 -8 -6 -5 -6 6 -1 11 2 17 5 13 3 -3 4 -12 1 -19z"/>
<path d="M2951 4916 c-7 -8 -13 -27 -14 -43 -2 -22 3 -29 21 -31 16 -3 22 2
22 17 0 11 5 23 10 26 22 14 8 -44 -20 -82 -16 -22 -31 -55 -32 -74 l-3 -34
55 0 c44 0 55 3 58 18 3 13 -3 17 -27 17 -41 0 -46 13 -18 47 50 59 61 108 31
137 -19 20 -68 21 -83 2z"/>
<path d="M3096 4914 c-25 -24 -23 -185 2 -207 25 -23 58 -21 82 3 17 17 20 33
20 98 0 91 -15 122 -60 122 -16 0 -36 -7 -44 -16z m52 -101 c-3 -88 -21 -102
-26 -21 -4 59 4 98 19 98 6 0 9 -29 7 -77z"/>
<path d="M4724 4905 c-21 -32 -13 -66 26 -105 30 -30 39 -60 20 -60 -5 0 -10
7 -10 15 0 9 -9 15 -25 15 -31 0 -34 -31 -5 -60 11 -11 29 -20 40 -20 28 0 60
35 60 65 0 14 -15 41 -35 64 -34 38 -46 71 -24 71 6 0 13 -9 16 -20 8 -30 43
-26 43 4 0 56 -75 78 -106 31z"/>
<path d="M4860 4810 l0 -120 25 0 c23 0 25 3 25 50 0 64 18 66 22 3 3 -41 6
-48 26 -51 22 -3 22 -2 22 118 0 120 0 121 -22 118 -19 -2 -24 -10 -26 -45 -4
-57 -22 -55 -22 2 0 41 -2 45 -25 45 l-25 0 0 -120z"/>
<path d="M5027 4912 c-13 -14 -17 -38 -17 -100 0 -69 3 -85 20 -102 25 -25 62
-26 83 -2 24 26 24 183 1 206 -21 22 -67 20 -87 -2z m57 -38 c8 -20 8 -108 0
-128 -13 -34 -24 -2 -24 70 0 69 10 94 24 58z"/>
<path d="M5170 4811 l0 -121 25 0 c23 0 25 4 25 44 0 40 3 45 29 54 24 8 31
18 37 48 11 60 -10 88 -69 92 l-47 3 0 -120z m70 49 c0 -16 -4 -30 -10 -30 -5
0 -10 14 -10 30 0 17 5 30 10 30 6 0 10 -13 10 -30z"/>
<path d="M2850 4840 c0 -15 7 -20 25 -20 18 0 25 5 25 20 0 15 -7 20 -25 20
-18 0 -25 -5 -25 -20z"/>
<path d="M2857 4733 c-4 -3 -7 -15 -7 -25 0 -13 7 -18 25 -18 20 0 25 5 25 25
0 18 -5 25 -18 25 -10 0 -22 -3 -25 -7z"/>
<path d="M3444 4549 c-3 -5 -20 -140 -37 -299 -18 -159 -35 -290 -39 -290 -5
0 -8 10 -9 23 0 12 -24 144 -53 292 l-52 270 -85 -3 c-143 -4 -208 -12 -204
-25 2 -7 6 -68 10 -137 3 -69 11 -199 17 -290 5 -91 11 -235 13 -320 2 -85 5
-166 8 -180 3 -14 9 -51 12 -82 l6 -57 62 5 c59 6 63 5 91 -25 16 -17 28 -32
25 -33 -2 -2 -21 -12 -42 -23 -29 -14 -50 -38 -82 -93 -46 -79 -53 -79 -69 -7
-4 17 -12 43 -18 58 -10 26 -15 28 -57 25 l-46 -3 -3 -40 c-5 -86 -3 -109 16
-135 21 -28 44 -98 37 -110 -3 -4 -21 -11 -41 -15 -65 -12 -333 -94 -427 -132
-51 -19 -141 -60 -201 -90 -126 -62 -106 -70 -187 75 -68 123 -122 249 -173
405 l-42 127 1 -97 c2 -87 6 -108 38 -191 218 -556 673 -1027 1217 -1260 532
-228 1074 -252 1620 -72 551 181 1014 574 1298 1101 43 79 136 295 148 343 7
29 6 29 -26 22 -19 -3 -34 -7 -35 -9 0 -1 -16 -42 -34 -92 -42 -114 -160 -345
-176 -345 -7 0 -45 15 -86 34 -41 18 -82 36 -92 39 -14 5 -16 11 -7 26 5 11
19 22 30 26 11 3 19 9 18 13 -1 4 8 23 20 42 12 19 23 31 23 25 1 -5 3 -14 4
-20 2 -5 3 -21 4 -34 0 -13 4 -21 8 -17 4 3 12 -6 19 -21 12 -27 12 -27 13 -5
l1 24 34 -21 c39 -25 46 -26 46 -7 0 7 -12 22 -27 31 l-26 18 43 21 c75 36 56
64 -22 32 l-34 -15 4 34 c7 56 -4 63 -25 16 l-19 -44 -16 32 -15 33 -7 -26
c-3 -14 -11 -26 -17 -26 -6 0 -8 -4 -5 -9 4 -5 -18 -30 -48 -56 l-55 -47 -113
35 c-62 20 -135 41 -162 49 -59 16 -67 31 -29 52 15 8 25 15 20 16 -4 0 0 12
9 26 l17 25 13 -37 c15 -44 34 -67 34 -41 0 16 2 16 25 1 31 -20 45 -11 22 14
-21 23 -21 32 -3 32 8 0 24 9 37 20 l24 19 -28 1 c-16 0 -38 -5 -49 -11 -20
-11 -21 -9 -15 19 9 42 -8 50 -22 10 -15 -42 -36 -23 -36 32 0 21 -1 37 -4 34
-2 -2 -10 1 -16 6 -9 8 -14 5 -18 -10 -3 -13 0 -23 9 -27 16 -6 19 -53 3 -53
-7 0 -9 9 -6 21 4 14 2 19 -8 15 -7 -2 -16 5 -20 17 -7 21 -7 21 -14 -5 -5
-21 -9 -25 -21 -18 -8 5 -21 10 -27 10 -22 0 -14 -20 12 -32 24 -11 24 -12 9
-30 -14 -15 -15 -18 -3 -18 8 0 20 5 27 12 9 9 12 9 12 -2 1 -11 5 -10 15 4 8
11 17 17 20 15 2 -3 -15 -25 -40 -49 l-44 -43 -53 11 c-29 6 -64 14 -78 16
-101 19 -184 37 -188 40 -2 3 9 20 24 40 l28 35 13 -27 c10 -20 22 -28 44 -29
31 -2 31 -2 14 17 -15 16 -15 20 -3 20 8 0 23 7 34 16 18 14 17 15 -20 10 -34
-5 -38 -3 -33 14 6 23 -11 27 -19 5 -9 -23 -24 -7 -24 25 0 15 -7 30 -15 34
-15 5 -19 -5 -15 -34 1 -10 -3 -9 -14 5 -15 20 -15 20 -16 -1 0 -17 -5 -20
-27 -17 l-28 5 23 -19 c18 -15 20 -21 10 -32 -11 -11 -9 -12 10 -6 27 8 28 -2
2 -33 -18 -22 -25 -23 -87 -18 -84 7 -68 1 133 -53 172 -46 322 -95 457 -147
118 -46 367 -174 367 -188 -1 -6 -11 -24 -24 -40 -17 -20 -26 -25 -31 -16 -5
8 -1 16 9 22 25 14 19 31 -9 24 -19 -5 -25 -2 -25 10 0 13 -3 14 -15 4 -13
-11 -15 -8 -15 14 0 14 -4 26 -9 26 -21 0 -41 -13 -41 -27 0 -10 -6 -12 -20
-8 -23 7 -28 -10 -5 -19 8 -3 12 -12 9 -21 -5 -11 -2 -14 12 -9 15 6 17 4 7
-6 -10 -11 -33 -3 -125 42 -62 30 -123 58 -135 62 -13 4 -23 12 -23 17 0 11
14 12 24 2 4 -4 19 -9 33 -11 23 -3 25 -1 14 12 -11 13 -10 17 3 22 23 9 20
27 -4 21 -13 -3 -20 0 -20 9 0 17 -17 18 -23 2 -3 -7 -6 -3 -6 9 -1 29 -18 38
-37 19 -8 -9 -22 -16 -30 -16 -8 0 -14 -4 -14 -10 0 -5 5 -10 11 -10 6 0 9 -6
6 -14 -4 -9 1 -17 11 -20 9 -3 6 -3 -8 -1 -56 9 -314 104 -299 110 8 3 28 1
44 -5 15 -6 31 -8 34 -4 3 4 0 9 -8 12 -10 3 -8 10 10 24 l24 20 -27 -5 c-16
-2 -26 0 -25 7 1 6 -5 10 -14 8 -10 -1 -19 6 -22 18 -6 22 -37 18 -37 -6 0 -8
-6 -11 -15 -8 -8 4 -15 1 -15 -5 0 -6 4 -11 10 -11 5 0 7 -7 4 -15 -4 -9 0
-15 7 -15 12 0 12 -2 1 -9 -8 -5 -51 2 -105 15 -51 13 -96 24 -102 24 -5 0 73
-32 175 -70 220 -83 445 -193 593 -290 l108 -71 -51 -59 -51 -59 -87 57 c-105
68 -100 64 -84 69 6 3 9 10 5 16 -3 7 4 3 16 -7 22 -20 61 -29 61 -15 0 4 -5
11 -12 15 -7 5 -4 10 10 15 28 10 29 33 2 26 -13 -3 -20 0 -20 9 0 8 -4 14
-10 14 -5 0 -10 -4 -10 -10 0 -5 -4 -10 -10 -10 -5 0 -10 11 -10 25 0 14 -4
25 -9 25 -21 0 -41 -13 -41 -26 0 -8 -6 -11 -15 -8 -16 7 -21 -11 -5 -21 5 -3
7 -12 4 -19 -4 -10 -22 -5 -74 24 -37 20 -100 52 -139 71 -39 19 -71 37 -71
42 0 10 14 9 45 -3 23 -9 26 -8 21 5 -3 9 1 18 9 21 23 9 18 27 -5 21 -14 -3
-20 0 -20 10 0 13 -3 13 -15 3 -13 -10 -15 -9 -15 8 0 29 -14 34 -30 12 -7
-10 -19 -16 -27 -13 -15 6 -18 -13 -3 -22 6 -4 8 -11 5 -16 -4 -5 -1 -9 6 -9
7 0 10 -2 7 -5 -3 -3 -56 15 -118 40 -62 25 -114 44 -116 42 -2 -2 113 -65
234 -126 67 -35 247 -152 350 -229 109 -81 113 -85 96 -103 -18 -19 -52 -18
-65 4 -4 5 -11 7 -17 3 -6 -3 -12 3 -14 16 -4 27 -21 33 -39 15 -8 -7 -20 -12
-28 -9 -10 3 -12 0 -8 -13 15 -37 -7 -32 -76 19 -40 29 -97 68 -126 87 -30 18
-49 35 -42 37 6 2 19 1 29 -4 33 -14 51 -14 46 0 -3 8 4 16 18 20 18 5 20 8 9
15 -8 5 -20 7 -28 4 -9 -4 -11 0 -7 11 3 9 1 16 -5 16 -6 0 -11 -5 -11 -11 0
-5 -4 -8 -9 -5 -5 3 -7 15 -4 25 7 27 -8 31 -45 11 -18 -10 -29 -21 -23 -24 6
-4 7 -14 4 -23 -5 -12 -3 -14 8 -8 11 6 12 5 1 -6 -10 -11 -24 -7 -85 26 -39
22 -95 51 -124 65 -29 14 -52 28 -53 33 0 11 28 9 35 -3 10 -17 45 -12 39 5
-4 8 -1 15 5 15 6 0 11 5 11 10 0 6 -7 10 -15 10 -8 0 -15 5 -15 11 0 5 -4 8
-9 5 -5 -3 -11 3 -14 14 -4 17 -8 18 -36 7 -35 -13 -37 -19 -16 -40 13 -13 13
-16 0 -21 -9 -3 -28 -1 -43 4 -25 10 -26 9 -7 -5 11 -8 25 -19 32 -25 7 -5 17
-10 23 -10 36 0 362 -231 488 -345 71 -65 71 -63 -13 -120 l-53 -37 -64 60
c-35 33 -76 71 -93 85 -36 31 -26 48 14 24 38 -22 58 -23 41 -2 -10 13 -9 15
8 15 12 0 24 5 27 10 3 6 -5 10 -19 10 -19 0 -24 4 -19 16 4 11 1 15 -12 12
-13 -2 -19 4 -20 19 -2 24 -15 45 -15 25 0 -7 -7 -12 -15 -12 -8 0 -15 -4 -15
-9 0 -5 -10 -7 -22 -4 -18 5 -21 3 -11 -7 6 -7 9 -19 6 -26 -3 -8 0 -14 7 -14
6 0 8 -5 5 -10 -4 -7 -23 2 -48 23 -23 18 -70 52 -104 76 -35 23 -63 46 -63
51 0 12 37 13 42 1 2 -4 13 -11 25 -15 18 -6 22 -4 17 8 -4 11 -1 16 10 16 9
0 16 5 16 10 0 6 -9 10 -20 10 -13 0 -18 5 -14 15 7 18 -12 20 -20 3 -3 -7 -5
-4 -3 7 3 33 -12 48 -30 30 -9 -9 -22 -14 -29 -11 -16 6 -15 -35 1 -46 5 -4 3
-10 -7 -13 -9 -4 -33 4 -55 17 -62 39 -159 92 -148 81 6 -5 51 -39 100 -74
146 -104 233 -176 359 -300 l119 -116 -63 -36 c-35 -20 -69 -33 -74 -29 -6 3
5 10 24 15 25 6 30 11 19 18 -8 5 -22 9 -33 9 -15 0 -16 3 -6 15 17 20 5 32
-15 15 -18 -15 -21 1 -5 31 6 10 7 19 3 20 -4 0 -18 2 -31 3 -13 2 -25 -1 -27
-5 -3 -4 -15 -5 -26 -2 -19 5 -20 4 -10 -16 8 -14 8 -21 1 -21 -18 0 -11 -20
8 -21 13 0 12 -3 -6 -11 -19 -10 -25 -8 -38 11 -9 12 -42 53 -75 90 -47 55
-56 70 -43 75 17 7 37 -1 30 -12 -2 -4 7 -13 21 -19 20 -10 24 -9 20 2 -3 7 3
15 15 18 22 6 16 27 -7 27 -10 0 -12 6 -8 18 6 15 5 16 -12 2 -17 -14 -18 -13
-11 5 13 34 12 39 -11 41 -13 1 -23 -2 -23 -6 0 -5 -10 -6 -22 -2 -21 5 -22 4
-9 -11 10 -13 10 -17 1 -17 -10 0 -9 -4 1 -16 11 -14 10 -15 -8 -12 -11 1 -69
49 -128 106 -93 89 -103 102 -81 102 14 0 26 -6 26 -13 0 -7 9 -18 20 -25 17
-10 20 -10 20 3 0 8 7 15 15 15 8 0 15 5 15 10 0 6 -4 10 -10 10 -5 0 -10 10
-10 21 0 18 -2 19 -15 9 -17 -14 -21 0 -4 17 18 18 1 33 -26 23 -17 -6 -27 -6
-32 3 -5 8 -9 3 -13 -13 -4 -14 -2 -28 3 -31 5 -3 -1 -9 -12 -12 -14 -3 -36 7
-68 31 -29 21 -1 -11 67 -78 63 -63 147 -153 186 -200 85 -101 204 -267 204
-285 0 -12 -77 -48 -179 -84 l-55 -19 -43 86 c-50 98 -50 117 2 108 22 -4 35
-3 35 4 0 5 5 10 11 10 8 0 8 -4 2 -13 -17 -20 -11 -50 14 -77 l23 -25 0 28
c0 24 2 26 19 17 27 -14 41 -13 41 3 0 8 -12 19 -26 26 l-26 11 24 21 23 20
-27 -5 c-35 -8 -39 18 -6 35 14 8 18 14 10 17 -6 2 -9 9 -5 15 4 6 0 8 -9 4
-9 -3 -21 0 -27 6 -10 9 -16 7 -27 -7 -11 -16 -14 -17 -14 -4 0 8 -8 22 -17
29 -15 13 -16 11 -10 -19 4 -19 3 -31 -2 -27 -5 3 -12 1 -16 -5 -3 -6 2 -13
11 -17 13 -5 6 -10 -27 -17 l-44 -11 -26 45 c-14 25 -42 71 -62 102 -20 31
-37 60 -37 63 0 3 11 5 25 5 14 0 25 -5 25 -11 0 -12 29 -38 43 -39 5 0 6 8 2
19 -5 15 -1 18 20 13 29 -5 34 14 6 23 -13 4 -18 11 -14 22 5 13 2 15 -11 10
-14 -6 -16 -3 -11 13 9 29 -2 41 -29 30 -16 -6 -28 -5 -36 3 -10 10 -12 7 -7
-10 3 -13 1 -23 -4 -23 -4 0 -6 -6 -3 -14 9 -24 -25 -27 -37 -3 -16 28 -126
174 -138 182 -6 3 27 -50 72 -117 85 -128 292 -528 279 -538 -9 -9 -85 -30
-103 -30 -8 0 -23 7 -33 15 -20 15 -20 15 0 30 19 14 18 14 -3 15 -29 0 -29
13 -2 31 14 10 18 20 13 32 -5 14 -9 16 -15 6 -6 -11 -9 -10 -14 4 -5 12 -11
14 -25 7 -14 -8 -19 -5 -25 13 -7 21 -8 21 -12 -6 -2 -15 -8 -25 -13 -22 -5 3
-11 1 -14 -4 -4 -5 -2 -12 4 -16 20 -12 9 -21 -22 -17 -33 4 -33 5 -55 95 -12
51 -18 96 -13 100 14 15 50 -3 50 -25 0 -12 3 -18 7 -15 3 4 12 -1 19 -11 13
-16 13 -16 14 2 0 13 5 17 20 13 28 -7 35 10 11 25 -16 10 -18 15 -8 27 10 12
8 14 -10 9 -26 -7 -30 4 -9 22 22 17 9 38 -22 34 -14 -1 -33 3 -41 9 -12 10
-13 8 -9 -10 4 -13 2 -23 -4 -23 -6 0 -8 -6 -5 -14 3 -8 -2 -16 -13 -19 -16
-4 -23 6 -41 62 -12 36 -33 90 -46 120 -13 30 -20 58 -15 63 14 14 40 -2 46
-28 6 -24 26 -34 26 -13 0 6 9 8 20 4 25 -8 27 10 3 24 -10 6 -12 11 -5 11 6
0 12 5 12 11 0 6 -7 9 -15 5 -8 -3 -15 -1 -15 3 0 5 7 11 15 15 17 6 10 33 -8
33 -7 0 -23 3 -36 8 -20 6 -23 4 -18 -9 4 -9 2 -16 -4 -16 -6 0 -7 -4 -4 -10
3 -6 -5 -10 -18 -10 -19 0 -28 8 -36 32 -6 17 -14 29 -17 25 -3 -3 -1 -14 4
-24 64 -121 184 -625 155 -654 -5 -5 -64 -13 -130 -16 l-120 -6 -8 294 c-7
302 -20 519 -24 394 -10 -380 -22 -680 -28 -685 -9 -7 -239 3 -247 10 -9 9 22
202 50 318 27 110 66 236 104 332 34 88 7 44 -39 -63 -72 -165 -120 -327 -152
-504 -15 -85 -11 -83 -137 -57 -120 24 -152 34 -152 47 0 7 12 40 26 74 l26
61 52 7 c60 8 96 28 96 54 0 10 -13 35 -30 56 -16 21 -30 42 -30 47 0 18 167
297 213 356 5 6 7 12 4 12 -6 0 -154 -199 -198 -268 -19 -29 -36 -47 -38 -41
-2 6 7 21 19 34 l23 24 -20 103 -21 103 42 44 41 45 -42 -33 c-31 -23 -44 -29
-47 -19 -13 42 -26 111 -22 115 3 3 25 1 48 -5 159 -40 449 -52 678 -27 239
25 383 68 469 140 37 31 39 60 15 163 -8 37 -21 94 -29 127 -7 33 -23 98 -34
145 -11 47 -27 120 -36 163 -11 51 -22 77 -31 77 -20 0 -19 -10 31 -264 25
-126 43 -232 40 -234 -2 -3 -19 2 -37 11 -80 38 -320 87 -425 87 -33 0 -43 4
-43 16 0 11 -5 14 -17 9 -39 -16 -56 -18 -49 -7 4 7 3 20 -3 29 -8 16 -10 14
-16 -10 -7 -26 -25 -38 -25 -17 0 13 30 75 55 115 l19 30 -23 -20 -24 -20 12
23 c16 30 34 23 42 -14 5 -24 7 -26 13 -12 7 16 12 15 44 -12 56 -46 72 -36
27 18 l-25 29 73 0 c41 0 82 5 96 12 23 13 23 14 5 24 -10 6 -53 14 -94 17
l-75 5 36 40 c49 55 91 130 87 155 l-3 22 -35 -24 c-19 -13 -57 -53 -84 -90
l-50 -66 -16 47 c-34 98 -70 143 -70 86 0 -14 -4 -24 -8 -21 -19 11 -30 -9
-16 -28 8 -11 14 -14 14 -7 0 7 5 9 10 6 6 -3 7 -17 4 -31 -4 -13 -2 -24 4
-24 6 0 8 -8 5 -19 -3 -12 -11 -17 -23 -14 -14 4 -17 10 -10 32 6 22 3 32 -18
52 -25 24 -25 24 -18 1 6 -19 4 -22 -21 -23 l-28 -1 29 -12 c18 -8 24 -16 17
-20 -6 -4 -11 -12 -11 -18 0 -6 9 -3 20 7 20 18 29 8 9 -12 -7 -7 -2 -17 20
-33 33 -23 35 -41 16 -113 -7 -28 -23 -30 -65 -6 -13 7 -12 8 3 9 9 0 17 5 17
10 0 6 -5 10 -10 10 -6 0 -1 13 11 30 28 38 17 51 -16 20 l-25 -23 0 42 c0 23
-8 56 -17 74 l-16 32 -8 -29 c-5 -16 -5 -49 -2 -73 l6 -44 -70 36 c-41 22 -79
35 -94 33 l-24 -3 33 -32 c18 -17 55 -43 82 -56 l50 -25 -38 -15 c-20 -8 -48
-26 -62 -39 -24 -23 -25 -23 -3 -26 12 -2 42 6 67 17 25 12 47 21 49 21 2 0 2
-13 -1 -29 -4 -32 -2 -32 -163 -45 -54 -4 -56 -4 -51 19 2 14 -9 51 -27 89
-17 36 -31 74 -31 84 0 9 -8 30 -19 45 -15 23 -17 41 -13 98 4 59 2 69 -12 69
-12 0 -16 -10 -16 -45 0 -25 -3 -45 -6 -45 -3 0 -17 14 -31 30 -35 43 -59 54
-128 60 -57 5 -60 7 -63 33 -3 26 -1 27 37 27 36 0 41 3 41 23 0 13 11 34 25
47 29 27 31 47 10 77 -13 18 -14 36 -5 112 13 115 31 245 34 249 4 3 16 -323
16 -420 l0 -78 101 0 102 0 -7 253 c-3 138 -9 382 -12 540 l-7 288 -138 -2
c-77 0 -142 -5 -145 -10z m-230 -674 c9 -43 11 -74 6 -79 -17 -17 -23 3 -27
87 -3 93 0 92 21 -8z m112 -121 c31 -15 64 -48 64 -65 0 -3 -23 0 -52 7 -29 8
-83 14 -121 14 -63 0 -68 1 -56 17 35 41 109 53 165 27z m47 -90 c66 -20 121
-63 111 -88 -6 -17 -54 -46 -74 -46 -5 0 -10 15 -11 33 -2 59 -13 80 -49 93
-45 16 -135 16 -180 0 -30 -11 -36 -19 -44 -54 -6 -23 -14 -42 -18 -42 -5 0
-25 15 -45 33 -42 39 -40 60 9 83 44 19 221 13 301 -12z m-50 -25 c51 -14 63
-45 48 -119 -14 -70 -45 -102 -99 -104 -74 -2 -129 83 -123 191 2 35 99 53
174 32z m67 -275 c0 -47 -29 -78 -75 -78 -45 0 -75 30 -75 75 0 26 3 29 31 29
33 0 89 28 89 45 1 25 29 -43 30 -71z m135 0 c20 -8 117 -143 110 -154 -3 -5
-27 -22 -54 -38 l-49 -30 -21 29 c-18 24 -22 44 -22 95 0 58 7 104 16 104 2 0
11 -3 20 -6z m-366 -76 c-10 -29 -18 -65 -19 -79 0 -14 -3 -29 -6 -32 -5 -5
-38 6 -52 18 -5 4 48 108 66 128 26 30 30 19 11 -35z m-179 13 c0 -5 -7 -11
-15 -15 -21 -8 -19 -23 5 -29 16 -4 20 -14 20 -44 0 -24 11 -57 30 -90 33 -57
45 -69 30 -27 -7 17 -7 32 0 45 12 22 20 23 55 7 38 -17 34 -62 -13 -129 -21
-29 -45 -55 -55 -57 -23 -5 -54 50 -67 118 -6 30 -22 76 -35 101 -31 58 -32
92 -2 112 25 18 47 22 47 8z m300 -34 c8 -3 -2 -6 -22 -6 -35 -1 -38 1 -38 26
l0 26 23 -20 c12 -11 29 -23 37 -26z m115 4 c-5 -18 -14 -21 -53 -20 l-47 1
35 10 c19 5 41 16 49 23 19 18 25 12 16 -14z m729 -17 c3 -8 2 -12 -4 -9 -6 3
-10 10 -10 16 0 14 7 11 14 -7z m922 -51 c-11 -11 -17 4 -9 23 7 18 8 18 11 1
2 -10 1 -21 -2 -24z m-2010 -40 c-10 -10 -19 5 -10 18 6 11 8 11 12 0 2 -7 1
-15 -2 -18z m649 -47 c23 -50 32 -81 27 -94 -4 -11 -53 -67 -108 -126 l-101
-107 -41 13 c-38 12 -66 47 -39 49 8 0 8 2 0 6 -20 8 -15 23 7 23 11 0 20 5
20 10 0 6 -6 10 -14 10 -8 0 -18 5 -21 10 -3 6 4 10 18 10 16 0 28 -9 38 -31
l15 -31 68 97 68 96 -27 40 c-16 21 -25 42 -22 45 7 7 71 53 75 54 1 0 18 -33
37 -74z m-161 -3 c4 -5 12 -8 18 -8 6 0 20 -12 31 -27 l21 -28 -30 -42 c-16
-24 -38 -44 -47 -46 -15 -3 -17 7 -17 77 0 75 6 92 24 74z m521 -27 c18 -13
18 -17 6 -40 -12 -21 -22 -26 -51 -26 l-38 0 17 36 c8 19 17 30 19 25 2 -6 8
-11 14 -11 6 0 8 7 4 15 -7 19 4 19 29 1z m-1081 -82 c31 -75 97 -85 136 -21
l20 32 0 -37 0 -37 -102 -32 c-223 -70 -423 -159 -603 -267 -49 -30 -93 -56
-97 -58 -3 -2 -34 33 -68 78 -58 77 -61 83 -43 96 28 21 241 125 308 151 129
50 389 135 425 140 3 1 13 -20 24 -45z m1056 -21 c0 -35 -17 -45 -89 -53 -78
-9 -121 -30 -121 -61 0 -64 290 -85 415 -30 42 18 57 42 36 55 -5 4 -7 -2 -4
-13 9 -33 -51 -44 -221 -39 -145 4 -205 16 -191 38 6 10 57 25 121 35 l40 6
-4 -35 c-4 -35 -3 -36 28 -36 31 0 32 1 28 36 l-4 37 74 -6 c89 -7 90 1 1 11
-63 7 -64 7 -66 40 -2 24 1 32 13 32 11 0 14 -5 10 -17 -4 -10 -4 -14 0 -10 4
4 14 1 23 -6 10 -9 27 -11 46 -7 l30 7 -25 10 c-50 21 6 25 137 9 162 -20 271
-47 352 -88 79 -41 109 -77 93 -112 -26 -57 -190 -116 -395 -141 -261 -32
-777 -8 -816 39 -5 6 -12 27 -15 46 -6 33 -1 40 97 143 l102 108 70 8 c39 5
107 9 153 10 72 1 82 -1 82 -16z m-904 -140 c-3 -42 -7 -77 -9 -78 -1 -1 -77
-39 -169 -85 -155 -76 -382 -213 -436 -263 l-24 -22 -63 70 c-35 39 -64 73
-65 76 0 9 178 123 270 172 147 79 441 204 484 206 18 1 18 -5 12 -76z m-2
-125 c3 -13 6 -48 6 -80 l0 -56 -57 -32 c-96 -54 -263 -169 -342 -236 l-75
-63 -35 29 c-20 15 -48 41 -63 57 l-27 28 57 46 c90 71 256 181 392 258 69 39
128 71 131 71 4 0 9 -10 13 -22z m2656 -50 c0 9 4 9 20 0 17 -11 18 -14 4 -29
-15 -16 -18 -16 -51 4 -33 19 -34 21 -17 34 16 12 21 11 31 -4 7 -9 13 -11 13
-5z m-313 -60 c-3 -8 -6 -5 -6 6 -1 11 2 17 5 13 3 -3 4 -12 1 -19z m-2337
-146 l0 -88 -77 -62 c-70 -55 -102 -83 -193 -168 l-26 -24 -59 42 c-33 22 -62
42 -64 44 -7 6 57 70 139 139 70 58 268 205 276 205 2 0 4 -40 4 -88z m249
-143 c-16 -31 -21 -17 -13 38 l7 48 9 -33 c6 -21 5 -40 -3 -53z m-218 -75 c24
-22 25 -75 1 -90 -9 -6 -43 -19 -74 -28 -87 -25 -84 -63 7 -73 47 -6 48 -9 12
-57 -13 -18 -17 -17 -101 25 -49 24 -91 50 -94 57 -3 8 41 60 109 128 110 111
114 114 117 85 2 -16 12 -37 23 -47z m2289 67 c0 -5 8 -11 18 -14 16 -4 16 -4
-1 -12 -13 -5 -25 -1 -40 14 l-21 21 22 0 c12 0 22 -4 22 -9z m-1995 -169 c14
-139 13 -144 -18 -211 -17 -36 -31 -67 -33 -69 -4 -6 -136 38 -211 70 l-31 13
31 53 c30 49 34 52 74 52 72 0 75 3 67 80 -6 65 -5 68 26 104 l33 37 27 -26
c24 -23 29 -38 35 -103z m1582 -92 c3 -11 9 -18 13 -15 21 13 18 -15 -2 -30
-22 -15 -24 -14 -50 17 -18 23 -23 35 -15 40 22 14 49 8 54 -12z m-532 -130
c-3 -5 -12 -10 -18 -10 -7 0 -6 4 3 10 19 12 23 12 15 0z m-55 -45 c7 -8 10
-22 6 -30 -3 -8 -1 -15 4 -15 6 0 10 -6 10 -14 0 -8 -14 -15 -35 -18 -30 -3
-36 -1 -40 16 -5 23 -8 57 -6 69 2 13 48 7 61 -8z"/>
<path d="M3291 3564 c-27 -35 -27 -54 2 -54 31 0 47 18 47 52 0 36 -22 37 -49
2z"/>
<path d="M3164 3565 c-10 -24 23 -65 51 -65 31 0 34 31 5 60 -24 24 -48 26
-56 5z"/>
<path d="M3285 3450 c-16 -7 -17 -9 -3 -9 9 -1 20 4 23 9 7 11 7 11 -20 0z"/>
<path d="M3228 3443 c7 -3 16 -2 19 1 4 3 -2 6 -13 5 -11 0 -14 -3 -6 -6z"/>
<path d="M3913 4168 c4 -215 7 -458 7 -540 l0 -149 103 3 102 3 3 538 2 537
-112 0 -111 0 6 -392z"/>
<path d="M4306 4249 c-3 -173 -7 -416 -9 -540 l-2 -226 238 -7 c132 -4 241 -5
244 -2 3 3 8 45 11 94 l5 89 -144 9 c-105 7 -144 12 -143 22 1 6 2 66 3 132
l1 120 114 0 114 0 6 31 c3 17 6 60 6 95 l0 63 -112 3 -113 3 0 114 0 114 148
-2 147 -2 0 43 c0 24 3 67 6 96 5 40 3 52 -7 52 -8 0 -125 3 -260 7 l-247 6
-6 -314z"/>
<path d="M4979 4503 c0 -21 -2 -45 -3 -53 -2 -8 -6 -80 -10 -160 -6 -125 -30
-598 -39 -771 l-3 -56 89 -7 c49 -4 91 -6 92 -4 2 2 8 82 14 178 6 96 14 213
18 260 l7 85 7 -75 c4 -41 15 -158 24 -260 9 -102 19 -188 23 -192 4 -3 43 -8
87 -10 l79 -3 37 155 c81 339 89 369 84 310 -5 -51 -16 -196 -31 -396 l-7 -81
94 -6 c55 -3 96 -2 99 3 3 6 14 96 23 202 10 106 26 285 37 398 35 375 40 425
40 446 0 20 -7 22 -92 28 -51 4 -116 9 -144 12 l-50 6 -23 -104 c-59 -273
-107 -477 -112 -483 -3 -3 -9 41 -13 97 -14 218 -38 493 -44 499 -4 4 -69 9
-144 13 l-138 7 -1 -38z"/>
<path d="M2352 4486 c-62 -7 -114 -15 -115 -17 -2 -2 20 -238 49 -524 29 -286
53 -526 53 -533 1 -11 17 -12 79 -7 122 10 133 13 127 38 -2 12 -9 81 -15 152
-6 72 -13 160 -17 198 l-6 67 46 0 c68 0 75 -16 92 -206 7 -87 19 -174 25
-192 l12 -33 102 7 c55 4 102 8 104 9 2 2 -3 23 -11 47 -8 23 -18 88 -22 143
-14 223 -29 282 -82 331 -24 22 -25 26 -11 42 41 46 51 85 50 188 -2 154 -33
229 -115 275 -35 19 -58 24 -137 25 -52 2 -146 -3 -208 -10z m223 -196 c27
-30 35 -189 11 -213 -16 -16 -82 -34 -92 -25 -2 3 -10 58 -16 123 -12 130 -10
135 48 135 19 0 38 -8 49 -20z"/>
<path d="M6056 4443 c-38 -10 -96 -54 -121 -91 -43 -65 -44 -71 -94 -557 -14
-136 -17 -204 -10 -238 25 -133 122 -206 277 -207 88 0 126 15 171 66 65 74
76 114 121 454 44 329 45 372 11 438 -27 52 -101 118 -147 131 -39 11 -172 13
-208 4z m158 -199 c23 -22 21 -60 -19 -377 -23 -180 -41 -290 -50 -304 -18
-26 -61 -31 -90 -9 -23 17 -24 64 -1 246 8 69 22 190 31 270 10 80 24 155 31
168 17 27 74 30 98 6z"/>
<path d="M1792 4424 c-115 -17 -132 -25 -132 -67 0 -18 -5 -133 -10 -257 -18
-460 -23 -767 -12 -774 19 -11 146 13 160 31 7 10 12 49 12 99 0 93 -9 84 102
99 l46 6 15 -53 c8 -29 20 -74 27 -100 7 -27 15 -48 19 -47 3 0 49 6 101 13
87 11 95 14 92 32 -1 12 -49 183 -106 380 -186 646 -189 654 -205 653 -9 -1
-58 -8 -109 -15z m49 -401 c9 -16 31 -84 50 -152 32 -120 33 -124 14 -137 -10
-8 -36 -14 -57 -14 l-39 0 1 165 c1 91 5 165 9 165 4 0 14 -12 22 -27z"/>
<path d="M1330 4345 c-36 -7 -134 -23 -219 -36 -94 -15 -155 -29 -158 -36 -6
-15 166 -1015 176 -1024 8 -9 171 21 171 31 0 3 -16 101 -35 216 -19 115 -31
212 -27 216 4 4 50 14 102 23 52 9 97 18 99 21 5 4 -18 146 -24 152 -2 3 -47
-2 -99 -10 -52 -8 -100 -12 -105 -8 -14 8 -53 242 -42 253 5 5 68 18 140 29
77 13 131 26 130 32 -2 45 -26 150 -34 151 -6 2 -39 -3 -75 -10z"/>
<path d="M6740 4324 c-84 -37 -131 -119 -138 -242 -4 -79 -3 -86 31 -155 20
-40 64 -106 97 -147 99 -120 115 -153 114 -234 0 -63 -3 -71 -29 -93 -23 -20
-36 -24 -64 -19 -52 8 -63 29 -59 110 l3 70 -80 12 c-92 15 -94 14 -97 -61 -4
-120 8 -162 66 -223 56 -60 164 -90 252 -72 166 35 249 271 159 450 -13 26
-57 89 -98 141 -94 119 -107 145 -107 211 0 79 18 100 83 96 45 -3 53 -6 65
-31 10 -21 11 -39 3 -75 -5 -26 -8 -49 -5 -51 11 -11 160 -29 169 -20 18 18
19 156 1 204 -22 58 -82 110 -147 129 -66 20 -173 20 -219 0z"/>
<path d="M3840 4054 c0 -5 -7 -52 -15 -104 -8 -52 -14 -138 -14 -190 1 -89 2
-92 10 -40 13 88 31 332 25 338 -3 3 -6 1 -6 -4z"/>
<path d="M3768 3410 c-4 -14 -7 -43 -7 -65 l1 -40 9 40 c6 22 8 51 7 65 l-3
25 -7 -25z"/>
<path d="M4408 3413 c-3 -4 5 -63 18 -130 44 -232 58 -238 24 -9 -17 118 -30
161 -42 139z"/>
<path d="M5786 3165 c4 -10 0 -15 -11 -15 -14 0 -15 -3 -6 -14 13 -15 51 -28
52 -18 0 4 2 17 5 30 2 13 0 21 -5 17 -5 -3 -12 -1 -16 5 -10 16 -25 12 -19
-5z"/>
<path d="M5733 3111 c6 -29 5 -31 -13 -21 -10 5 -31 10 -46 10 -22 0 -24 -2
-15 -14 7 -8 26 -18 44 -22 l31 -6 -23 -19 c-29 -24 -20 -36 14 -21 21 10 25
9 26 -6 0 -14 2 -14 6 -2 3 8 10 17 14 20 5 3 11 23 15 45 5 34 4 37 -9 26
-13 -10 -16 -9 -19 10 -2 12 -9 25 -17 27 -11 4 -13 -2 -8 -27z"/>
</g>
</svg>
